<?xml version="1.0" standalone="no"?>
<!DOCTYPE svg PUBLIC "-//W3C//DTD SVG 20010904//EN"
 "http://www.w3.org/TR/2001/REC-SVG-20010904/DTD/svg10.dtd">
<svg version="1.0" xmlns="http://www.w3.org/2000/svg"
 width="86.000000pt" height="64.000000pt" viewBox="0 0 86.000000 64.000000"
 preserveAspectRatio="xMidYMid meet">

<g transform="translate(0.000000,64.000000) scale(0.100000,-0.100000)"
fill="#000000" stroke="none">
<path d="M216 625 c-92 -33 -139 -102 -134 -197 l3 -57 -40 -3 c-28 -2 -40 -8
-40 -18 0 -11 14 -16 50 -18 l50 -3 165 -165 165 -164 169 169 c158 160 171
170 210 173 49 4 55 22 9 26 l-33 3 0 58 c0 174 -191 270 -321 162 l-33 -28
-36 27 c-33 27 -96 50 -130 50 -8 -1 -33 -7 -54 -15z m127 -41 c18 -9 45 -28
60 -42 30 -28 27 -29 91 22 98 77 238 21 261 -104 3 -19 2 -48 -4 -63 -10 -27
-12 -27 -101 -27 l-90 0 -17 35 c-9 20 -21 34 -26 32 -6 -2 -24 -42 -40 -90
-17 -48 -33 -87 -36 -87 -4 0 -24 50 -46 110 -21 61 -43 110 -47 110 -5 0 -20
-27 -35 -60 l-26 -61 -81 3 -81 3 -9 47 c-24 123 115 228 227 172z m52 -276
c21 -60 41 -108 45 -108 4 0 23 43 41 95 18 52 37 95 41 95 3 0 10 -9 13 -20
6 -18 15 -20 96 -20 49 0 89 -3 89 -8 0 -4 -64 -71 -143 -150 l-142 -142 -145
145 -145 145 78 0 78 0 21 46 c11 25 23 42 28 38 4 -5 25 -57 45 -116z"/>
</g>
</svg>
