<?xml version="1.0" standalone="no"?>
<!DOCTYPE svg PUBLIC "-//W3C//DTD SVG 20010904//EN"
 "http://www.w3.org/TR/2001/REC-SVG-20010904/DTD/svg10.dtd">
<svg version="1.0" xmlns="http://www.w3.org/2000/svg"
 width="65.000000pt" height="65.000000pt" viewBox="0 0 65.000000 65.000000"
 preserveAspectRatio="xMidYMid meet">

<g transform="translate(0.000000,65.000000) scale(0.100000,-0.100000)"
fill="#000000" stroke="none">
<path d="M335 640 c-26 -10 -51 -39 -60 -70 -10 -36 -163 -188 -196 -195 -38
-9 -72 -49 -72 -86 0 -26 13 -45 80 -110 52 -51 88 -79 103 -79 25 0 90 60 90
83 0 8 7 20 16 28 13 11 30 -3 124 -96 122 -122 147 -132 197 -82 50 50 40 75
-82 197 -93 94 -107 111 -96 124 8 9 20 16 28 16 23 0 83 65 83 90 0 26 -143
175 -175 183 -11 3 -29 2 -40 -3z m105 -105 l74 -74 -24 -26 c-13 -14 -29 -24
-34 -21 -15 5 -225 -204 -220 -218 3 -7 -7 -23 -21 -36 l-26 -24 -76 77 -77
76 24 26 c13 14 29 24 36 21 14 -5 227 207 218 217 -7 7 33 57 45 57 4 0 40
-34 81 -75z m147 -472 l-27 -28 -110 110 -110 109 27 28 27 29 111 -111 110
-110 -28 -27z"/>
</g>
</svg>
